<svg xmlns="http://www.w3.org/2000/svg" width="30" height="30.19" viewBox="0 0 30 30.19">
  <g id="linkedin" transform="translate(-213.882 -1.783)">
    <path id="Path_196" data-name="Path 196" d="M213.882,3.946A2.191,2.191,0,0,1,216.1,1.783h25.565a2.191,2.191,0,0,1,2.217,2.163V29.811a2.19,2.19,0,0,1-2.217,2.162H216.1a2.19,2.19,0,0,1-2.217-2.162V3.945Z" transform="translate(0 0)" fill="#fff"/>
    <path id="Path_199" data-name="Path 199" d="M229.529,34.787V21.155H225V34.787h4.532Zm-2.265-15.493a2.525,2.525,0,1,0-.03,0h.029Zm4.773,15.493h4.531V27.175a3.105,3.105,0,0,1,.149-1.105,2.48,2.48,0,0,1,2.325-1.657c1.639,0,2.3,1.25,2.3,3.083v7.292h4.531V26.971c0-4.187-2.235-6.136-5.216-6.136a4.514,4.514,0,0,0-4.114,2.3h.03V21.155h-4.531c.059,1.279,0,13.632,0,13.632Z" transform="translate(-6.553 -7.732)" fill="#303030"/>
  </g>
</svg>
